<svg width="29" height="22" viewBox="0 0 29 22" fill="none" xmlns="http://www.w3.org/2000/svg">
<g filter="url(#filter0_d)">
<path d="M5.47656 1.48438V0.484375H4.47656V1.48438H5.47656ZM7.35156 1.48438H8.35156V0.484375H7.35156V1.48438ZM7.35156 13V14H8.35156V13H7.35156ZM5.47656 13H4.47656V14H5.47656V13ZM11.5234 2.42188L10.8832 3.19017L10.8936 3.19863L11.5234 2.42188ZM12.4453 3.5625L11.5551 4.01798L11.5615 4.03049L11.5682 4.04281L12.4453 3.5625ZM12.5078 6.64062L13.4291 7.02961L13.4321 7.02239L12.5078 6.64062ZM7.99219 8.84375H6.99219V9.84375H7.99219V8.84375ZM7.99219 7.46875V6.46875H6.99219V7.46875H7.99219ZM9.74219 7.35938L10.0584 8.30806L10.0712 8.30379L10.0839 8.29917L9.74219 7.35938ZM10.8203 6.23438L11.7592 6.57865L11.7627 6.56878L10.8203 6.23438ZM10.9141 4.40625L9.93505 4.61021L9.93689 4.61868L10.9141 4.40625ZM10.5859 3.70312L9.75971 4.26646L9.77455 4.28822L9.79051 4.30917L10.5859 3.70312ZM9.91406 3.14062L9.44184 4.0221L9.45425 4.02875L9.46685 4.03505L9.91406 3.14062ZM7.99219 2.90625H6.99219V3.90625H7.99219V2.90625ZM7.99219 1.48438V0.484375H6.99219V1.48438H7.99219ZM5.47656 2.48438H7.35156V0.484375H5.47656V2.48438ZM6.35156 1.48438V13H8.35156V1.48438H6.35156ZM7.35156 12H5.47656V14H7.35156V12ZM6.47656 13V1.48438H4.47656V13H6.47656ZM8.78906 2.48438C9.17027 2.48438 9.55012 2.5449 9.93217 2.66948L10.5522 0.76802C9.97592 0.5801 9.38703 0.484375 8.78906 0.484375V2.48438ZM9.93217 2.66948C10.2947 2.78769 10.6089 2.96148 10.8833 3.1901L12.1636 1.65365C11.688 1.25727 11.148 0.962306 10.5522 0.76802L9.93217 2.66948ZM10.8936 3.19863C11.1692 3.4221 11.3885 3.69234 11.5551 4.01798L13.3356 3.10702C13.0438 2.53682 12.6485 2.04665 12.1532 1.64512L10.8936 3.19863ZM11.5682 4.04281C11.7188 4.3178 11.8047 4.64437 11.8047 5.04688H13.8047C13.8047 4.34521 13.651 3.6822 13.3224 3.08219L11.5682 4.04281ZM11.8047 5.04688C11.8047 5.51558 11.7256 5.91501 11.5836 6.25886L13.4321 7.02239C13.6859 6.4079 13.8047 5.74484 13.8047 5.04688H11.8047ZM11.5866 6.25165C11.4413 6.5956 11.2468 6.8696 11.0059 7.08917L12.3534 8.56708C12.821 8.14082 13.1784 7.62315 13.4291 7.0296L11.5866 6.25165ZM11.0059 7.08917C10.7604 7.31305 10.4523 7.49818 10.0646 7.6355L10.7323 9.52075C11.3446 9.3039 11.8907 8.98903 12.3534 8.56708L11.0059 7.08917ZM10.0646 7.6355C9.68558 7.76973 9.24822 7.84375 8.74219 7.84375V9.84375C9.44449 9.84375 10.1113 9.74069 10.7323 9.52075L10.0646 7.6355ZM8.74219 7.84375H7.99219V9.84375H8.74219V7.84375ZM8.99219 8.84375V7.46875H6.99219V8.84375H8.99219ZM7.99219 8.46875H9.07031V6.46875H7.99219V8.46875ZM9.07031 8.46875C9.40764 8.46875 9.73834 8.41475 10.0584 8.30806L9.42596 6.41069C9.30853 6.44983 9.19132 6.46875 9.07031 6.46875V8.46875ZM10.0839 8.29917C10.4487 8.16653 10.7729 7.96107 11.0538 7.69576L9.68056 6.24174C9.58648 6.33059 9.49402 6.38555 9.40044 6.41958L10.0839 8.29917ZM11.0538 7.69576C11.3817 7.38605 11.6063 6.99569 11.7592 6.57863L9.88144 5.89012C9.80519 6.09806 9.72763 6.19729 9.68056 6.24174L11.0538 7.69576ZM11.7627 6.56878C11.9266 6.10704 11.9922 5.59056 11.9922 5.04688H9.99219C9.99219 5.44069 9.94321 5.71588 9.87788 5.89997L11.7627 6.56878ZM11.9922 5.04688C11.9922 4.77003 11.9541 4.48318 11.8912 4.19382L9.93689 4.61868C9.97815 4.80849 9.99219 4.94872 9.99219 5.04688H11.9922ZM11.893 4.2023C11.8082 3.79523 11.6314 3.4252 11.3814 3.09708L9.79051 4.30917C9.87385 4.41855 9.91572 4.51727 9.93508 4.6102L11.893 4.2023ZM11.4122 3.13979C11.1442 2.74683 10.7785 2.45483 10.3613 2.2462L9.46685 4.03505C9.63293 4.11809 9.71514 4.20109 9.75971 4.26646L11.4122 3.13979ZM10.3863 2.25915C9.89885 1.99802 9.33288 1.90625 8.75781 1.90625V3.90625C9.14108 3.90625 9.34594 3.97073 9.44184 4.0221L10.3863 2.25915ZM8.75781 1.90625H7.99219V3.90625H8.75781V1.90625ZM8.99219 2.90625V1.48438H6.99219V2.90625H8.99219ZM7.99219 2.48438H8.78906V0.484375H7.99219V2.48438ZM14.9609 13H13.9609V14H14.9609V13ZM14.9609 1.48438V0.484375H13.9609V1.48438H14.9609ZM16.8672 1.48438H17.8672V0.484375H16.8672V1.48438ZM16.8672 13V14H17.8672V13H16.8672ZM18.7578 7.40625L17.9089 6.87766L17.5559 7.44463L17.9444 7.98792L18.7578 7.40625ZM22.7578 13V14H24.7023L23.5712 12.4183L22.7578 13ZM20.5859 13L19.7587 13.5619L20.0563 14H20.5859V13ZM17.5078 8.46875H16.5078V8.77628L16.6806 9.03067L17.5078 8.46875ZM17.5078 6.1875L16.6483 5.67637L16.5078 5.91262V6.1875H17.5078ZM20.3047 1.48438V0.484375H19.7359L19.4452 0.973243L20.3047 1.48438ZM22.4453 1.48438L23.2942 2.01296L24.246 0.484375H22.4453V1.48438ZM15.9609 13V1.48438H13.9609V13H15.9609ZM14.9609 2.48438H16.8672V0.484375H14.9609V2.48438ZM15.8672 1.48438V13H17.8672V1.48438H15.8672ZM16.8672 12H14.9609V14H16.8672V12ZM17.9444 7.98792L21.9444 13.5817L23.5712 12.4183L19.5712 6.82458L17.9444 7.98792ZM22.7578 12H20.5859V14H22.7578V12ZM21.4131 12.4381L18.335 7.90683L16.6806 9.03067L19.7587 13.5619L21.4131 12.4381ZM18.5078 8.46875V6.1875H16.5078V8.46875H18.5078ZM18.3673 6.69863L21.1642 1.99551L19.4452 0.973243L16.6483 5.67637L18.3673 6.69863ZM20.3047 2.48438H22.4453V0.484375H20.3047V2.48438ZM21.5964 0.955786L17.9089 6.87766L19.6067 7.93484L23.2942 2.01296L21.5964 0.955786Z" fill="#6FD29C"/>
</g>
<defs>
<filter id="filter0_d" x="0.476562" y="0.484375" width="28.2257" height="21.5156" filterUnits="userSpaceOnUse" color-interpolation-filters="sRGB">
<feFlood flood-opacity="0" result="BackgroundImageFix"/>
<feColorMatrix in="SourceAlpha" type="matrix" values="0 0 0 0 0 0 0 0 0 0 0 0 0 0 0 0 0 0 127 0"/>
<feOffset dy="4"/>
<feGaussianBlur stdDeviation="2"/>
<feColorMatrix type="matrix" values="0 0 0 0 0 0 0 0 0 0 0 0 0 0 0 0 0 0 0.3 0"/>
<feBlend mode="normal" in2="BackgroundImageFix" result="effect1_dropShadow"/>
<feBlend mode="normal" in="SourceGraphic" in2="effect1_dropShadow" result="shape"/>
</filter>
</defs>
</svg>
