<svg width="347" height="234" viewBox="0 0 347 234" fill="none" xmlns="http://www.w3.org/2000/svg">
<g filter="url(#filter0_d)">
<path d="M7.68555 4.08203V0.0820312H3.68555V4.08203H7.68555ZM42.8418 4.08203H46.8418V0.0820312H42.8418V4.08203ZM42.8418 220V224H46.8418V220H42.8418ZM7.68555 220H3.68555V224H7.68555V220ZM121.064 21.6602L118.504 24.733L118.524 24.7502L118.545 24.7672L121.064 21.6602ZM138.35 43.0469L134.789 44.8688L134.814 44.9188L134.841 44.9681L138.35 43.0469ZM139.521 100.762L143.206 102.318L143.213 102.303L143.219 102.289L139.521 100.762ZM54.8535 142.07H50.8535V146.07H54.8535V142.07ZM54.8535 116.289V112.289H50.8535V116.289H54.8535ZM87.666 114.238L88.9309 118.033L88.9822 118.016L89.033 117.997L87.666 114.238ZM107.881 93.1445L111.636 94.5215L111.644 94.5019L111.651 94.4822L107.881 93.1445ZM109.639 58.8672L105.723 59.683L105.726 59.7L105.73 59.7169L109.639 58.8672ZM103.486 45.6836L100.181 47.9369L100.241 48.024L100.305 48.1078L103.486 45.6836ZM90.8887 35.1367L88.9998 38.6626L89.0494 38.6892L89.0998 38.7144L90.8887 35.1367ZM54.8535 30.7422H50.8535V34.7422H54.8535V30.7422ZM54.8535 4.08203V0.0820312H50.8535V4.08203H54.8535ZM7.68555 8.08203H42.8418V0.0820312H7.68555V8.08203ZM38.8418 4.08203V220H46.8418V4.08203H38.8418ZM42.8418 216H7.68555V224H42.8418V216ZM11.6855 220V4.08203H3.68555V220H11.6855ZM69.7949 8.08203C78.5411 8.08203 87.205 9.47647 95.8009 12.2795L98.2811 4.67364C88.9082 1.61728 79.4081 0.0820312 69.7949 0.0820312V8.08203ZM95.8009 12.2795C104.319 15.057 111.875 19.2092 118.504 24.733L123.625 18.5873C116.191 12.3924 107.732 7.75547 98.2811 4.67364L95.8009 12.2795ZM118.545 24.7672C125.333 30.2704 130.742 36.9595 134.789 44.8688L141.911 41.225C137.363 32.3374 131.249 24.7686 123.584 18.5531L118.545 24.7672ZM134.841 44.9681C138.977 52.5212 141.088 61.1257 141.088 70.8789H149.088C149.088 59.929 146.706 49.9788 141.858 41.1256L134.841 44.9681ZM141.088 70.8789C141.088 81.3579 139.312 90.7916 135.824 99.2347L143.219 102.289C147.153 92.7631 149.088 82.2749 149.088 70.8789H141.088ZM135.836 99.2058C132.336 107.496 127.486 114.43 121.299 120.072L126.689 125.983C133.783 119.515 139.285 111.606 143.206 102.318L135.836 99.2058ZM121.299 120.072C115.093 125.73 107.561 130.158 98.6353 133.319L101.306 140.86C111.13 137.381 119.614 132.434 126.689 125.983L121.299 120.072ZM98.6353 133.319C89.7443 136.468 79.8516 138.07 68.916 138.07V146.07C80.6367 146.07 91.4471 144.352 101.306 140.86L98.6353 133.319ZM68.916 138.07H54.8535V146.07H68.916V138.07ZM58.8535 142.07V116.289H50.8535V142.07H58.8535ZM54.8535 120.289H75.0684V112.289H54.8535V120.289ZM75.0684 120.289C79.7979 120.289 84.4241 119.535 88.9309 118.033L86.4011 110.444C82.7048 111.676 78.9326 112.289 75.0684 112.289V120.289ZM89.033 117.997C93.8722 116.238 98.242 113.495 102.131 109.822L96.6383 104.006C93.4963 106.973 90.0536 109.114 86.299 110.479L89.033 117.997ZM102.131 109.822C106.209 105.971 109.335 100.799 111.636 94.5215L104.125 91.7675C102.13 97.2086 99.5922 101.216 96.6383 104.006L102.131 109.822ZM111.651 94.4822C113.996 87.8722 115.104 79.9677 115.104 70.8789H107.104C107.104 79.3682 106.063 86.3075 104.111 91.8069L111.651 94.4822ZM115.104 70.8789C115.104 67.0059 114.567 62.7088 113.547 58.0175L105.73 59.7169C106.663 64.01 107.104 67.7207 107.104 70.8789H115.104ZM113.555 58.0514C112.447 52.7356 110.126 47.7985 106.668 43.2594L100.305 48.1078C103.096 51.7719 104.877 55.6238 105.723 59.683L113.555 58.0514ZM106.791 43.4302C103.415 38.4782 98.6486 34.5446 92.6775 31.559L89.0998 38.7144C94.0662 41.1976 97.6984 44.2953 100.181 47.9369L106.791 43.4302ZM92.7776 31.6108C86.5257 28.2616 78.577 26.7422 69.209 26.7422V34.7422C77.8097 34.7422 84.3141 36.1524 88.9998 38.6626L92.7776 31.6108ZM69.209 26.7422H54.8535V34.7422H69.209V26.7422ZM58.8535 30.7422V4.08203H50.8535V30.7422H58.8535ZM54.8535 8.08203H69.7949V0.0820312H54.8535V8.08203ZM185.518 220H181.518V224H185.518V220ZM185.518 4.08203V0.0820312H181.518V4.08203H185.518ZM221.26 4.08203H225.26V0.0820312H221.26V4.08203ZM221.26 220V224H225.26V220H221.26ZM256.709 115.117L253.313 113.003L251.901 115.271L253.455 117.444L256.709 115.117ZM331.709 220V224H339.487L334.963 217.673L331.709 220ZM290.986 220L287.678 222.248L288.868 224H290.986V220ZM233.271 135.039H229.271V136.269L229.963 137.287L233.271 135.039ZM233.271 92.2656L229.833 90.2211L229.271 91.1661V92.2656H233.271ZM285.713 4.08203V0.0820312H283.438L282.275 2.0375L285.713 4.08203ZM325.85 4.08203L329.245 6.19639L333.052 0.0820312H325.85V4.08203ZM189.518 220V4.08203H181.518V220H189.518ZM185.518 8.08203H221.26V0.0820312H185.518V8.08203ZM217.26 4.08203V220H225.26V4.08203H217.26ZM221.26 216H185.518V224H221.26V216ZM253.455 117.444L328.455 222.327L334.963 217.673L259.963 112.791L253.455 117.444ZM331.709 216H290.986V224H331.709V216ZM294.295 217.752L236.58 132.791L229.963 137.287L287.678 222.248L294.295 217.752ZM237.271 135.039V92.2656H229.271V135.039H237.271ZM236.709 94.3102L289.151 6.12656L282.275 2.0375L229.833 90.2211L236.709 94.3102ZM285.713 8.08203H325.85V0.0820312H285.713V8.08203ZM322.454 1.96768L253.313 113.003L260.104 117.232L329.245 6.19639L322.454 1.96768Z" fill="#6FD29C"/>
</g>
<defs>
<filter id="filter0_d" x="0.685547" y="0.0820312" width="345.801" height="233.918" filterUnits="userSpaceOnUse" color-interpolation-filters="sRGB">
<feFlood flood-opacity="0" result="BackgroundImageFix"/>
<feColorMatrix in="SourceAlpha" type="matrix" values="0 0 0 0 0 0 0 0 0 0 0 0 0 0 0 0 0 0 127 0"/>
<feOffset dx="2" dy="5"/>
<feGaussianBlur stdDeviation="2.5"/>
<feColorMatrix type="matrix" values="0 0 0 0 0 0 0 0 0 0 0 0 0 0 0 0 0 0 0.4 0"/>
<feBlend mode="normal" in2="BackgroundImageFix" result="effect1_dropShadow"/>
<feBlend mode="normal" in="SourceGraphic" in2="effect1_dropShadow" result="shape"/>
</filter>
</defs>
</svg>
